#!OML:ASF X:\für Bonn\!DataBase\2005_08_10_Bjorn_Final\c3d\bjorn.ASF
:FULLY-SPECIFIED
:DEGREES
46
root 0.525764 17.6035 3.54465 -174.867 2.87641 -179.541
lowerback 2.7919 2.25363 2.75758
upperback 6.45722 3.53954 -0.708035
thorax 5.33243 2.13031 -2.18241
lowerneck -10.9226 -1.46174 3.12206
upperneck 10.3604 -2.02749 -4.13276
head 4.8209 -1.16765 -1.94008
rclavicle 2.73577e-014 -1.63003e-014
rhumerus 72.5071 -0.300704 -86.9701
rradius 3.86901
rwrist 61.4872
rhand -23.7901 10.0063
rfingers 7.12502
rthumb 2.68003 -19.9566
lclavicle 2.73577e-014 -1.63003e-014
lhumerus 71.5575 -12.9555 87.0465
lradius 4.78308
lwrist -69.281
lhand -28.056 -4.87863
lfingers 7.12502
lthumb -1.43996 25.0963
rfemur -35.9918 -7.77553 18.431
rtibia 61.0033
rfoot -28.6846 9.04317
rtoes -20.0816
lfemur -35.0367 2.29814 -18.6568
ltibia 62.2585
lfoot -25.8917 5.86347
ltoes -19.6057
47
root 0.528362 17.4584 3.57821 -174.848 2.80763 -179.578
lowerback 3.38579 2.16099 2.72487
upperback 6.725 3.48629 -0.699022
thorax 5.27259 2.12885 -2.17633
lowerneck -11.3921 -1.44422 3.09507
upperneck 9.9198 -2.00907 -4.07844
head 4.76456 -1.15271 -1.91738
rclavicle 1.80397e-014 1.09332e-015
rhumerus 73.123 -0.318118 -86.8408
rradius 3.93613
rwrist 62.0092
rhand -24.1484 10.2604
rfingers 7.12502
rthumb 2.33403 -19.7066
lclavicle 1.80397e-014 1.09332e-015
lhumerus 72.1271 -12.8932 86.9202
lradius 4.78565
lwrist -69.1508
lhand -28.3491 -4.9033
lfingers 7.12502
lthumb -1.72304 25.0695
rfemur -37.2616 -7.89575 18.4223
rtibia 63.0385
rfoot -29.3552 9.05838
rtoes -20.5035
lfemur -36.3601 2.27398 -18.738
ltibia 64.3988
lfoot -26.4034 6.14988
ltoes -20.1918
48
root 0.53201 17.3074 3.61231 -174.812 2.69852 -179.617
lowerback 3.95377 2.06437 2.69795
upperback 6.99526 3.42979 -0.692399
thorax 5.23141 2.12744 -2.17385
lowerneck -11.8744 -1.44493 3.10505
upperneck 9.47722 -2.0178 -4.09945
head 4.70712 -1.15672 -1.92643
rclavicle -5.77469e-014 1.27222e-014
rhumerus 73.7207 -0.356104 -86.7149
rradius 4.01834
rwrist 62.4027
rhand -24.4089 10.5029
rfingers 7.12502
rthumb 2.08249 -19.4667
lclavicle -5.77469e-014 1.27222e-014
lhumerus 72.6916 -12.8627 86.8002
lradius 4.832
lwrist -69.0072
lhand -28.3737 -4.97765
lfingers 7.12502
lthumb -1.74687 24.9949
rfemur -38.5709 -8.02926 18.4119
rtibia 65.1125
rfoot -29.9828 9.09413
rtoes -20.8037
lfemur -37.7463 2.23661 -18.8119
ltibia 66.6025
lfoot -26.8665 6.37765
ltoes -20.6152
49
root 0.535333 17.1497 3.64752 -174.783 2.59101 -179.673
lowerback 4.56046 1.95307 2.63434
upperback 7.26028 3.35695 -0.680991
thorax 5.16013 2.11671 -2.14756
lowerneck -12.373 -1.432 3.15238
upperneck 9.04712 -2.01353 -4.17803
head 4.65541 -1.15901 -1.95912
rclavicle -4.13472e-014 1.53064e-014
rhumerus 74.3207 -0.328496 -86.6027
rradius 4.08205
rwrist 62.537
rhand -24.5802 10.7337
rfingers 7.12502
rthumb 1.91705 -19.2375
lclavicle -4.13472e-014 1.53064e-014
lhumerus 73.2355 -12.7781 86.6772
lradius 4.9023
lwrist -68.9056
lhand -28.2295 -5.14926
lfingers 7.12502
lthumb -1.60757 24.8244
rfemur -39.9174 -8.17148 18.385
rtibia 67.2291
rfoot -30.6066 9.08593
rtoes -21.2583
lfemur -39.1743 2.23817 -18.9172
ltibia 68.869
lfoot -27.3141 6.64186
ltoes -21.3361
50
root 0.538132 16.9865 3.68372 -174.766 2.47157 -179.713
lowerback 5.18404 1.82929 2.58574
upperback 7.54061 3.27331 -0.658544
thorax 5.09648 2.10376 -2.11739
lowerneck -12.9611 -1.40537 3.25353
upperneck 8.67468 -1.99771 -4.34512
head 4.63481 -1.16273 -2.02936
rclavicle -5.81445e-014 1.27222e-014
rhumerus 74.9525 -0.277222 -86.4874
rradius 4.11032
rwrist 62.4675
rhand -24.6041 10.9839
rfingers 7.12502
rthumb 1.8939 -18.9874
lclavicle -5.81445e-014 1.27222e-014
lhumerus 73.8001 -12.6625 86.5531
lradius 4.96956
lwrist -68.7967
lhand -27.9561 -5.30744
lfingers 7.12502
lthumb -1.34355 24.6681
rfemur -41.2719 -8.2941 18.3668
rtibia 69.3797
rfoot -31.2008 9.10259
rtoes -21.6035
lfemur -40.6553 2.25423 -19.0061
ltibia 71.2236
lfoot -27.7097 6.87951
ltoes -22.1727
51
root 0.541425 16.8198 3.72064 -174.766 2.3322 -179.748
lowerback 5.80817 1.67632 2.5091
upperback 7.85415 3.15765 -0.610745
thorax 5.06423 2.07681 -2.04261
lowerneck -13.5462 -1.36127 3.29458
upperneck 8.23309 -1.95766 -4.4977
head 4.59376 -1.15794 -2.0829
rclavicle -1.98785e-014 -7.95139e-016
rhumerus 75.625 -0.152127 -86.3623
rradius 4.14387
rwrist 62.1731
rhand -24.5629 11.2179
rfingers 7.12502
rthumb 1.93372 -18.7531
lclavicle -1.98785e-014 -7.95139e-016
lhumerus 74.4102 -12.4869 86.4393
lradius 5.02027
lwrist -68.6798
lhand -27.6311 -5.45618
lfingers 7.12502
lthumb -1.02964 24.5211
rfemur -42.6273 -8.48299 18.3663
rtibia 71.5636
rfoot -31.8316 9.00315
rtoes -22.3699
lfemur -42.161 2.26465 -19.0846
ltibia 73.6339
lfoot -28.0536 7.09234
ltoes -23.0427
52
root 0.544286 16.6459 3.75713 -174.739 2.19652 -179.824
lowerback 6.48629 1.54582 2.39851
upperback 8.05923 3.05791 -0.582829
thorax 4.88837 2.04764 -1.97496
lowerneck -13.9776 -1.32565 3.43052
upperneck 7.8282 -1.93839 -4.7394
head 4.53603 -1.16674 -2.17976
rclavicle 3.37934e-014 -1.2921e-014
rhumerus 76.0912 -0.0410108 -86.2541
rradius 4.23162
rwrist 61.78
rhand -24.4055 11.3965
rfingers 7.12502
rthumb 2.08575 -18.573
lclavicle 3.37934e-014 -1.2921e-014
lhumerus 74.8233 -12.3367 86.3496
lradius 5.07747
lwrist -68.5347
lhand -27.3207 -5.61676
lfingers 7.12502
lthumb -0.729867 24.3617
rfemur -44.0652 -8.6709 18.3298
rtibia 73.7974
rfoot -32.3876 8.84251
rtoes -23.1079
lfemur -43.7463 2.32664 -19.2364
ltibia 76.0946
lfoot -28.229 7.51008
ltoes -24.7215
53
root 0.54719 16.4655 3.7921 -174.721 2.04654 -179.862
lowerback 7.1669 1.39995 2.33479
upperback 8.27254 2.94259 -0.558594
thorax 4.72387 2.0152 -1.93508
lowerneck -14.465 -1.27899 3.59475
upperneck 7.46702 -1.91593 -4.97723
head 4.50062 -1.17514 -2.28122
rclavicle -7.95139e-015 1.19271e-015
rhumerus 76.5247 0.0844431 -86.1794
rradius 4.36438
rwrist 61.3279
rhand -24.2126 11.5928
rfingers 7.12502
rthumb 2.27204 -18.3749
lclavicle -7.95139e-015 1.19271e-015
lhumerus 75.2624 -12.1691 86.2272
lradius 5.06683
lwrist -68.3785
lhand -27.2076 -5.74342
lfingers 7.12502
lthumb -0.620628 24.2354
rfemur -45.5073 -8.87422 18.3144
rtibia 76.0647
rfoot -32.8373 8.80862
rtoes -23.6336
lfemur -45.3254 2.42458 -19.3644
ltibia 78.5634
lfoot -28.297 8.03288
ltoes -26.6831
54
root 0.550119 16.2774 3.82529 -174.684 1.87758 -179.919
lowerback 7.80381 1.25241 2.26034
upperback 8.48984 2.82489 -0.535928
thorax 4.58941 1.98191 -1.88685
lowerneck -14.9715 -1.23119 3.73173
upperneck 7.11925 -1.89422 -5.20449
head 4.47257 -1.18625 -2.3757
rclavicle -1.61016e-014 1.59028e-015
rhumerus 76.9223 0.214198 -86.1023
rradius 4.52777
rwrist 60.8859
rhand -24.0755 11.7716
rfingers 7.12502
rthumb 2.40441 -18.1946
lclavicle -1.61016e-014 1.59028e-015
lhumerus 75.6935 -11.9847 86.109
lradius 5.04944
lwrist -68.2275
lhand -27.2029 -5.88695
lfingers 7.12502
lthumb -0.616039 24.0919
rfemur -46.9996 -9.10989 18.2547
rtibia 78.3703
rfoot -33.17 8.92471
rtoes -23.9385
lfemur -46.9395 2.5243 -19.5222
ltibia 81.0247
lfoot -28.2571 8.67684
ltoes -28.9908
55
root 0.551633 16.0863 3.85648 -174.664 1.71902 -179.974
lowerback 8.45061 1.10484 2.19795
upperback 8.7021 2.70918 -0.513604
thorax 4.44682 1.95077 -1.84465
lowerneck -15.4129 -1.18004 3.85443
upperneck 6.73865 -1.87268 -5.40051
head 4.42409 -1.19658 -2.45701
rclavicle -4.87022e-015 1.98785e-015
rhumerus 77.3007 0.348413 -86.0217
rradius 4.66427
rwrist 60.4756
rhand -23.9346 11.8716
rfingers 7.12502
rthumb 2.5405 -18.093
lclavicle -4.87022e-015 1.98785e-015
lhumerus 76.1005 -11.7959 85.9993
lradius 4.9869
lwrist -68.0385
lhand -27.417 -5.97624
lfingers 7.12502
lthumb -0.822855 24.0019
rfemur -48.4716 -9.34246 18.1598
rtibia 80.6845
rfoot -33.4084 9.12623
rtoes -24.394
lfemur -48.5129 2.6207 -19.6547
ltibia 83.4656
lfoot -28.2721 9.05502
ltoes -30.6299
